<svg width="32" height="32" viewBox="0 0 32 32" fill="none" xmlns="http://www.w3.org/2000/svg">
<rect x="0.560361" y="9.20196" width="4.80098" height="13.6028" rx="2.40049" fill="#0E1821" stroke="#0E1821" stroke-width="0.480098"/>
<mask id="path-2-inside-1_0_154" fill="white">
<path fill-rule="evenodd" clip-rule="evenodd" d="M5.60086 16.6434H3.84056C2.95673 16.6434 2.24023 15.9269 2.24023 15.0431V9.06129C2.46914 8.99656 2.71069 8.96191 2.96032 8.96191C4.41865 8.96191 5.60086 10.1441 5.60086 11.6025V16.6434Z"/>
</mask>
<path fill-rule="evenodd" clip-rule="evenodd" d="M5.60086 16.6434H3.84056C2.95673 16.6434 2.24023 15.9269 2.24023 15.0431V9.06129C2.46914 8.99656 2.71069 8.96191 2.96032 8.96191C4.41865 8.96191 5.60086 10.1441 5.60086 11.6025V16.6434Z" fill="white"/>
<path d="M5.60086 16.6434V17.1235H6.08095V16.6434H5.60086ZM2.24023 9.06129L2.10958 8.59931L1.76014 8.69814V9.06129H2.24023ZM5.60086 16.1633H3.84056V17.1235H5.60086V16.1633ZM3.84056 16.1633C3.22188 16.1633 2.72033 15.6618 2.72033 15.0431H1.76014C1.76014 16.1921 2.69158 17.1235 3.84056 17.1235V16.1633ZM2.72033 15.0431V9.06129H1.76014V15.0431H2.72033ZM2.37089 9.52327C2.5577 9.47044 2.75529 9.44201 2.96032 9.44201V8.48182C2.66608 8.48182 2.38058 8.52267 2.10958 8.59931L2.37089 9.52327ZM2.96032 9.44201C4.1535 9.44201 5.12076 10.4093 5.12076 11.6025H6.08095C6.08095 9.87897 4.6838 8.48182 2.96032 8.48182V9.44201ZM5.12076 11.6025V16.6434H6.08095V11.6025H5.12076Z" fill="#0E1821" mask="url(#path-2-inside-1_0_154)"/>
<rect x="26.4861" y="9.20196" width="4.80098" height="13.6028" rx="2.40049" fill="#0E1821" stroke="#0E1821" stroke-width="0.480098"/>
<path d="M5.36114 13.6824H15.0431C15.5292 13.6824 15.9233 14.0765 15.9233 14.5626V17.2832C15.9233 18.1228 15.2426 18.8035 14.403 18.8035H5.36114V13.6824Z" fill="#4878A6" stroke="#0E1821" stroke-width="0.480098"/>
<mask id="path-6-inside-2_0_154" fill="white">
<path fill-rule="evenodd" clip-rule="evenodd" d="M26.2449 16.6435H28.0051C28.889 16.6435 29.6055 15.927 29.6055 15.0432V9.06128C29.3766 8.99655 29.135 8.96191 28.8854 8.96191C27.4271 8.96191 26.2449 10.1441 26.2449 11.6025V16.6435Z"/>
</mask>
<path fill-rule="evenodd" clip-rule="evenodd" d="M26.2449 16.6435H28.0051C28.889 16.6435 29.6055 15.927 29.6055 15.0432V9.06128C29.3766 8.99655 29.135 8.96191 28.8854 8.96191C27.4271 8.96191 26.2449 10.1441 26.2449 11.6025V16.6435Z" fill="white"/>
<path d="M26.2449 16.6435V17.1236H25.7648V16.6435H26.2449ZM29.6055 9.06128L29.7361 8.5993L30.0856 8.69813V9.06128H29.6055ZM26.2449 16.1634H28.0051V17.1236H26.2449V16.1634ZM28.0051 16.1634C28.6238 16.1634 29.1254 15.6619 29.1254 15.0432H30.0856C30.0856 16.1922 29.1541 17.1236 28.0051 17.1236V16.1634ZM29.1254 15.0432V9.06128H30.0856V15.0432H29.1254ZM29.4748 9.52326C29.288 9.47043 29.0904 9.44201 28.8854 9.44201V8.48182C29.1796 8.48182 29.4651 8.52267 29.7361 8.5993L29.4748 9.52326ZM28.8854 9.44201C27.6922 9.44201 26.725 10.4093 26.725 11.6025H25.7648C25.7648 9.87897 27.1619 8.48182 28.8854 8.48182V9.44201ZM26.725 11.6025V16.6435H25.7648V11.6025H26.725Z" fill="#0E1821" mask="url(#path-6-inside-2_0_154)"/>
<path d="M26.4846 13.6824H16.8026C16.3165 13.6824 15.9224 14.0765 15.9224 14.5626V17.2832C15.9224 18.1228 16.6031 18.8035 17.4427 18.8035H26.4846V13.6824Z" fill="#4878A6" stroke="#0E1821" stroke-width="0.480098"/>
<line x1="5.60156" y1="16.4035" x2="26.2458" y2="16.4035" stroke="#0E1821" stroke-width="0.480098"/>
<rect x="12.3223" y="17.123" width="0.960195" height="3.52072" rx="0.480098" transform="rotate(90 12.3223 17.123)" fill="white"/>
<rect x="23.0449" y="17.123" width="0.960195" height="3.52072" rx="0.480098" transform="rotate(90 23.0449 17.123)" fill="white"/>
<line x1="6.96075" y1="14.9631" x2="14.1622" y2="14.9631" stroke="#0E1821" stroke-width="0.480098" stroke-linecap="round"/>
<line x1="17.6834" y1="14.9631" x2="24.8849" y2="14.9631" stroke="#0E1821" stroke-width="0.480098" stroke-linecap="round"/>
</svg>
