<svg width="32" height="32" viewBox="0 0 32 32" fill="none" xmlns="http://www.w3.org/2000/svg">
<rect x="5.84161" y="4.40118" width="20.3241" height="23.0447" rx="3.28067" fill="#4878A6" stroke="#0E1821" stroke-width="0.480098"/>
<rect x="7.76153" y="6.00079" width="16.4834" height="19.684" rx="1.68034" fill="white" stroke="#0E1821" stroke-width="0.480098"/>
<path d="M15.1295 8.12762C15.1402 8.09133 15.1624 8.05947 15.1929 8.03682C15.2234 8.01416 15.2604 8.00193 15.2984 8.00195H16.7066C16.7345 8.00197 16.762 8.00858 16.7868 8.02122C16.8116 8.03386 16.833 8.05219 16.8493 8.07468C16.8656 8.09717 16.8763 8.12318 16.8805 8.15058C16.8847 8.17799 16.8823 8.20599 16.8735 8.23229L16.2469 10.1023H17.5868C17.6197 10.1022 17.652 10.1114 17.68 10.1288C17.708 10.1461 17.7305 10.1709 17.745 10.2003C17.7595 10.2298 17.7654 10.2627 17.762 10.2953C17.7586 10.3279 17.7461 10.3589 17.7258 10.3847L15.2615 13.5352C15.2362 13.5676 15.2003 13.5902 15.16 13.599C15.1198 13.6078 15.0777 13.6023 15.0411 13.5833C15.0045 13.5644 14.9757 13.5333 14.9598 13.4955C14.9439 13.4576 14.9419 13.4154 14.9541 13.3763L15.5882 11.3274H14.4183C14.3909 11.3274 14.364 11.3211 14.3395 11.3089C14.315 11.2968 14.2937 11.2791 14.2773 11.2573C14.2609 11.2355 14.2498 11.2103 14.245 11.1835C14.2401 11.1567 14.2416 11.1292 14.2493 11.103L15.1295 8.12762ZM15.4301 8.352L14.6535 10.9774H15.8265C15.8541 10.9774 15.8812 10.9838 15.9058 10.9961C15.9304 11.0085 15.9518 11.0264 15.9681 11.0484C15.9845 11.0704 15.9954 11.096 16.0001 11.123C16.0047 11.15 16.0029 11.1777 15.9948 11.2039L15.573 12.5666L17.227 10.4523H16.0025C15.9747 10.4523 15.9472 10.4457 15.9224 10.433C15.8976 10.4204 15.8761 10.4021 15.8598 10.3796C15.8436 10.3571 15.8329 10.3311 15.8287 10.3037C15.8245 10.2763 15.8269 10.2483 15.8357 10.222L16.4623 8.352H15.4301Z" fill="#F15152"/>
<circle cx="11.8426" cy="17.6034" r="1.20024" fill="#FBB13C" stroke="#0E1821" stroke-width="0.480098"/>
<circle cx="11.8426" cy="21.7645" r="1.20024" fill="#FBB13C" stroke="#0E1821" stroke-width="0.480098"/>
<circle cx="16.0028" cy="17.6034" r="1.20024" fill="#FBB13C" stroke="#0E1821" stroke-width="0.480098"/>
<circle cx="16.0028" cy="21.7645" r="1.20024" fill="#FBB13C" stroke="#0E1821" stroke-width="0.480098"/>
<circle cx="20.1629" cy="17.6034" r="1.20024" fill="#FBB13C" stroke="#0E1821" stroke-width="0.480098"/>
<circle cx="20.1629" cy="21.7645" r="1.20024" fill="#FBB13C" stroke="#0E1821" stroke-width="0.480098"/>
<path d="M11.7416 0.400205H20.1041C20.7631 0.400205 21.3273 0.872604 21.4432 1.52136L21.9574 4.40102H9.88827L10.4025 1.52136C10.5183 0.872604 11.0826 0.400205 11.7416 0.400205Z" fill="#2A5275" stroke="#0E1821" stroke-width="0.480098"/>
<path d="M11.7416 31.4465H20.1041C20.7631 31.4465 21.3273 30.9741 21.4432 30.3253L21.9574 27.4457H9.88827L10.4025 30.3253C10.5183 30.9741 11.0826 31.4465 11.7416 31.4465Z" fill="#2A5275" stroke="#0E1821" stroke-width="0.480098"/>
</svg>
