<svg width="32" height="32" viewBox="0 0 32 32" fill="none" xmlns="http://www.w3.org/2000/svg">
<path d="M7.68186 8.96173H9.44222C10.547 8.96173 11.4426 9.85734 11.4426 10.9621V12.9625H5.68146V10.9621C5.68146 9.85734 6.57707 8.96173 7.68186 8.96173Z" fill="#2A5275" stroke="#0E1821" stroke-width="0.480098"/>
<path d="M15.5244 11.3621H16.4846C17.0591 11.3621 17.5248 11.8278 17.5248 12.4023V13.4425H14.4842V12.4023C14.4842 11.8278 14.9499 11.3621 15.5244 11.3621Z" fill="#4878A6" stroke="#0E1821" stroke-width="0.480098"/>
<path d="M22.5647 8.96173H24.325C25.4298 8.96173 26.3254 9.85734 26.3254 10.9621V12.9625H20.5643V10.9621C20.5643 9.85734 21.4599 8.96173 22.5647 8.96173Z" fill="#2A5275" stroke="#0E1821" stroke-width="0.480098"/>
<path d="M2.24023 26.3765V18.5177C2.24023 14.3731 5.43958 10.2044 9.4417 11.282C10.3585 11.5289 11.243 12.0727 11.8856 12.5425C12.5548 13.0317 13.3456 13.3625 14.1746 13.3625H17.8315C18.6604 13.3625 19.4513 13.0317 20.1205 12.5425C20.7631 12.0727 21.6476 11.5289 22.5644 11.282C26.5665 10.2044 29.7658 14.3731 29.7658 18.5177V26.3765C29.7658 28.5135 28.0334 30.2459 25.8964 30.2459C24.0944 30.2459 22.4418 29.2441 21.6082 27.6464L19.7638 24.1113C19.3704 23.3572 18.5903 22.8844 17.7398 22.8844H14.2663C13.4157 22.8844 12.6357 23.3572 12.2423 24.1113L10.3978 27.6464C9.56429 29.2441 7.91167 30.2459 6.10964 30.2459C3.97263 30.2459 2.24023 28.5135 2.24023 26.3765Z" fill="white" stroke="#0E1821" stroke-width="0.480098" stroke-linecap="round" stroke-linejoin="round"/>
<path d="M12.8039 17.524C12.8039 19.9104 10.8693 21.8449 8.48299 21.8449C6.09663 21.8449 4.16211 19.9104 4.16211 17.524C4.16211 15.1376 6.09663 13.2031 8.48299 13.2031C10.8693 13.2031 12.8039 15.1376 12.8039 17.524ZM6.29367 17.524C6.29367 18.7331 7.27386 19.7133 8.48299 19.7133C9.69211 19.7133 10.6723 18.7331 10.6723 17.524C10.6723 16.3149 9.69211 15.3347 8.48299 15.3347C7.27386 15.3347 6.29367 16.3149 6.29367 17.524Z" fill="#2A5275"/>
<circle cx="8.48252" cy="17.5235" r="2.16044" stroke="#0E1821" stroke-width="0.480098"/>
<circle cx="8.48274" cy="17.5238" r="4.40089" stroke="#0E1821" stroke-width="0.480098"/>
<circle cx="20.3249" cy="17.5232" r="1.36028" fill="#F15152" stroke="#0E1821" stroke-width="0.480098"/>
<circle cx="23.4441" cy="20.6438" r="1.36028" transform="rotate(-90 23.4441 20.6438)" fill="#F15152" stroke="#0E1821" stroke-width="0.480098"/>
<circle cx="26.5652" cy="17.5232" r="1.36028" fill="#F15152" stroke="#0E1821" stroke-width="0.480098"/>
<circle cx="23.4441" cy="14.4026" r="1.36028" transform="rotate(-90 23.4441 14.4026)" fill="#F15152" stroke="#0E1821" stroke-width="0.480098"/>
<path d="M16.0039 11.3627V9.52232C16.0039 8.63848 16.7204 7.92199 17.6042 7.92199H20.6048C21.4666 7.92199 22.1652 7.22342 22.1652 6.36168V6.36168C22.1652 5.49994 21.4666 4.80136 20.6048 4.80136H17.6042C16.7204 4.80136 16.0039 4.08487 16.0039 3.20103V1.76074" stroke="#0E1821" stroke-width="0.480098" stroke-linecap="round" stroke-linejoin="round"/>
<line x1="14.9627" y1="16.0832" x2="17.0431" y2="16.0832" stroke="#0E1821" stroke-width="0.480098" stroke-linecap="round"/>
<line x1="14.0037" y1="20.884" x2="15.1239" y2="20.884" stroke="#0E1821" stroke-width="0.480098" stroke-linecap="round"/>
<line x1="16.8846" y1="20.884" x2="18.0048" y2="20.884" stroke="#0E1821" stroke-width="0.480098" stroke-linecap="round"/>
</svg>
