<svg width="32" height="32" viewBox="0 0 32 32" fill="none" xmlns="http://www.w3.org/2000/svg">
<path d="M8.80191 25.6051C8.80191 27.9914 6.86739 29.9259 4.48103 29.9259C2.09468 29.9259 0.160156 27.9914 0.160156 25.6051C0.160156 23.2187 2.09468 21.2842 4.48103 21.2842C6.86739 21.2842 8.80191 23.2187 8.80191 25.6051ZM2.24503 25.6051C2.24503 26.84 3.24613 27.8411 4.48103 27.8411C5.71594 27.8411 6.71703 26.84 6.71703 25.6051C6.71703 24.3701 5.71594 23.3691 4.48103 23.3691C3.24613 23.3691 2.24503 24.3701 2.24503 25.6051Z" fill="#0E1821"/>
<circle cx="4.48057" cy="25.6056" r="2.16044" stroke="#0E1821" stroke-width="0.480098"/>
<circle cx="4.48103" cy="25.6051" r="4.08083" stroke="#0E1821" stroke-width="0.480098"/>
<path d="M31.8468 25.6051C31.8468 27.9914 29.9123 29.9259 27.526 29.9259C25.1396 29.9259 23.2051 27.9914 23.2051 25.6051C23.2051 23.2187 25.1396 21.2842 27.526 21.2842C29.9123 21.2842 31.8468 23.2187 31.8468 25.6051ZM25.29 25.6051C25.29 26.84 26.291 27.8411 27.526 27.8411C28.7609 27.8411 29.762 26.84 29.762 25.6051C29.762 24.3701 28.7609 23.3691 27.526 23.3691C26.291 23.3691 25.29 24.3701 25.29 25.6051Z" fill="#0E1821"/>
<circle cx="27.5255" cy="25.6056" r="2.16044" stroke="#0E1821" stroke-width="0.480098"/>
<circle cx="27.526" cy="25.6051" r="4.08083" stroke="#0E1821" stroke-width="0.480098"/>
<path d="M22.2448 22.5645H10.4023L10.6424 25.6851H19.6842L22.2448 22.5645Z" fill="#F15152" stroke="#0E1821" stroke-width="0.480098" stroke-linecap="round" stroke-linejoin="round"/>
<path d="M4.83411 18.6512L4.84444 18.6527L4.85485 18.6532C8.18309 18.829 10.892 21.3432 11.3684 24.5831C11.4288 24.9936 11.0869 25.3647 10.6228 25.3647C10.1792 25.3647 9.79208 24.9948 9.68837 24.5025C9.18076 22.0932 7.04354 20.2843 4.48313 20.2835L1.68425 20.2437L1.68425 20.2437H1.68084C1.23892 20.2437 0.880674 19.8854 0.880674 19.4435C0.880674 19.0016 1.23892 18.6434 1.68084 18.6434H4.72145C4.75982 18.6434 4.79742 18.6461 4.83411 18.6512Z" fill="#2A5275" stroke="#0E1821" stroke-width="0.480098"/>
<path d="M23.2932 3.96061L23.2593 3.76067H23.0565L21.365 3.76067V2.64044H24.0056C24.1048 2.64044 24.1904 2.7007 24.2269 2.7872L25.4712 10.0072L24.3501 10.1972L23.2932 3.96061Z" fill="#4878A6" stroke="#0E1821" stroke-width="0.480098"/>
<mask id="path-10-inside-1_0_157" fill="white">
<path fill-rule="evenodd" clip-rule="evenodd" d="M26.501 16.3569C26.0017 15.9989 25.3067 16.1134 24.9487 16.6127L19.304 24.4853L4.64171 24.4853C4.02303 24.4853 3.52148 24.9869 3.52148 25.6055C3.52148 26.2242 4.02303 26.7258 4.64171 26.7258H19.8448C20.1756 26.7258 20.473 26.5824 20.678 26.3543C20.7273 26.3072 20.7729 26.2549 20.8141 26.1975L26.7568 17.9092C27.1148 17.4099 27.0003 16.7149 26.501 16.3569Z"/>
</mask>
<path fill-rule="evenodd" clip-rule="evenodd" d="M26.501 16.3569C26.0017 15.9989 25.3067 16.1134 24.9487 16.6127L19.304 24.4853L4.64171 24.4853C4.02303 24.4853 3.52148 24.9869 3.52148 25.6055C3.52148 26.2242 4.02303 26.7258 4.64171 26.7258H19.8448C20.1756 26.7258 20.473 26.5824 20.678 26.3543C20.7273 26.3072 20.7729 26.2549 20.8141 26.1975L26.7568 17.9092C27.1148 17.4099 27.0003 16.7149 26.501 16.3569Z" fill="#4878A6"/>
<path d="M24.9487 16.6127L24.5585 16.333L24.5585 16.333L24.9487 16.6127ZM26.501 16.3569L26.7807 15.9667L26.7807 15.9667L26.501 16.3569ZM19.304 24.4853L19.304 24.9654L19.5506 24.9654L19.6942 24.7651L19.304 24.4853ZM4.64171 24.4853L4.64171 24.0052H4.64171V24.4853ZM20.678 26.3543L20.3462 26.0073L20.3331 26.0198L20.321 26.0333L20.678 26.3543ZM20.8141 26.1975L20.4239 25.9178L20.4239 25.9178L20.8141 26.1975ZM26.7568 17.9092L27.147 18.1889L27.147 18.1889L26.7568 17.9092ZM25.3389 16.8925C25.5424 16.6087 25.9374 16.5436 26.2212 16.7471L26.7807 15.9667C26.0659 15.4542 25.071 15.6182 24.5585 16.333L25.3389 16.8925ZM19.6942 24.7651L25.3389 16.8925L24.5585 16.333L18.9139 24.2056L19.6942 24.7651ZM4.64171 24.9654L19.304 24.9654L19.304 24.0052L4.64171 24.0052L4.64171 24.9654ZM4.00158 25.6055C4.00158 25.252 4.28818 24.9654 4.64171 24.9654V24.0052C3.75788 24.0052 3.04139 24.7217 3.04139 25.6055H4.00158ZM4.64171 26.2457C4.28818 26.2457 4.00158 25.9591 4.00158 25.6055H3.04139C3.04139 26.4894 3.75787 27.2059 4.64171 27.2059V26.2457ZM19.8448 26.2457H4.64171V27.2059H19.8448V26.2457ZM20.321 26.0333C20.2032 26.1644 20.0338 26.2457 19.8448 26.2457V27.2059C20.3175 27.2059 20.7428 27.0004 21.035 26.6753L20.321 26.0333ZM20.4239 25.9178C20.4001 25.9509 20.3741 25.9807 20.3462 26.0073L21.0098 26.7013C21.0805 26.6338 21.1456 26.559 21.2042 26.4773L20.4239 25.9178ZM26.3666 17.6294L20.4239 25.9178L21.2042 26.4773L27.147 18.1889L26.3666 17.6294ZM26.2212 16.7471C26.505 16.9506 26.5701 17.3456 26.3666 17.6294L27.147 18.1889C27.6595 17.4741 27.4955 16.4792 26.7807 15.9667L26.2212 16.7471Z" fill="#0E1821" mask="url(#path-10-inside-1_0_157)"/>
<rect x="24.0268" y="10.0921" width="1.74476" height="16.4546" rx="0.872381" transform="rotate(-9.61845 24.0268 10.0921)" fill="#4878A6" stroke="#0E1821" stroke-width="0.480098"/>
<rect x="21.3635" y="2.32013" width="1.76036" height="4.64094" rx="0.880179" transform="rotate(90 21.3635 2.32013)" fill="#2A5275" stroke="#0E1821" stroke-width="0.480098"/>
<path d="M26.0066 2.80078L24.4062 3.68096L24.8063 6.16146H26.5667L26.0066 2.80078Z" fill="#4878A6" stroke="#0E1821" stroke-width="0.480098" stroke-linecap="round" stroke-linejoin="round"/>
<path fill-rule="evenodd" clip-rule="evenodd" d="M26.4734 5.60085L26.1367 3.5808C26.246 3.54176 26.3638 3.52051 26.4866 3.52051C27.061 3.52051 27.5268 3.98623 27.5268 4.56072C27.5268 5.13521 27.061 5.60093 26.4866 5.60093C26.4822 5.60093 26.4778 5.6009 26.4734 5.60085Z" fill="#FBB13C"/>
<path d="M26.4734 5.60085L26.2366 5.64031L26.2696 5.83839L26.4704 5.84088L26.4734 5.60085ZM26.1367 3.5808L26.056 3.35473L25.8669 3.42223L25.8999 3.62026L26.1367 3.5808ZM26.7102 5.56139L26.3735 3.54133L25.8999 3.62026L26.2366 5.64031L26.7102 5.56139ZM26.2174 3.80687C26.3012 3.77695 26.3917 3.76056 26.4866 3.76056V3.28046C26.3359 3.28046 26.1909 3.30657 26.056 3.35473L26.2174 3.80687ZM26.4866 3.76056C26.9285 3.76056 27.2867 4.1188 27.2867 4.56072H27.7668C27.7668 3.85365 27.1936 3.28046 26.4866 3.28046V3.76056ZM27.2867 4.56072C27.2867 5.00264 26.9285 5.36088 26.4866 5.36088V5.84098C27.1936 5.84098 27.7668 5.26779 27.7668 4.56072H27.2867ZM26.4866 5.36088C26.4831 5.36088 26.4798 5.36086 26.4764 5.36082L26.4704 5.84088C26.4758 5.84095 26.4812 5.84098 26.4866 5.84098V5.36088Z" fill="#0E1821"/>
<circle cx="16.0034" cy="15.2036" r="5.52112" fill="white" stroke="#0E1821" stroke-width="0.480098"/>
<path d="M14.7339 11.3853C14.7495 11.3324 14.7819 11.286 14.8262 11.253C14.8705 11.2199 14.9244 11.2021 14.9797 11.2021H17.028C17.0686 11.2022 17.1085 11.2118 17.1446 11.2302C17.1807 11.2486 17.2119 11.2753 17.2356 11.3081C17.2593 11.3409 17.2748 11.3788 17.2809 11.4187C17.287 11.4587 17.2835 11.4995 17.2707 11.5378L16.3592 14.2626H18.3082C18.3561 14.2626 18.4031 14.2759 18.4438 14.3012C18.4845 14.3265 18.5173 14.3626 18.5383 14.4055C18.5594 14.4484 18.568 14.4963 18.563 14.5438C18.5581 14.5913 18.5399 14.6365 18.5105 14.6742L14.926 19.2649C14.8892 19.3121 14.837 19.345 14.7784 19.3579C14.7198 19.3707 14.6586 19.3626 14.6054 19.335C14.5521 19.3075 14.5103 19.2622 14.4872 19.207C14.4641 19.1519 14.4612 19.0904 14.4789 19.0333L15.4012 16.0478H13.6995C13.6597 16.0479 13.6205 16.0386 13.5849 16.0209C13.5493 16.0032 13.5183 15.9774 13.4945 15.9457C13.4706 15.9139 13.4545 15.8771 13.4474 15.8381C13.4404 15.7991 13.4425 15.7589 13.4538 15.7209L14.7339 11.3853ZM15.1712 11.7122L14.0416 15.5378H15.7478C15.7879 15.5378 15.8274 15.5471 15.8632 15.5651C15.899 15.5831 15.93 15.6092 15.9538 15.6413C15.9776 15.6734 15.9935 15.7106 16.0003 15.7499C16.007 15.7893 16.0044 15.8296 15.9926 15.8678L15.3791 17.8535L17.7848 14.7727H16.0039C15.9633 14.7726 15.9234 14.763 15.8873 14.7446C15.8512 14.7262 15.82 14.6995 15.7963 14.6667C15.7726 14.6339 15.7571 14.596 15.751 14.5561C15.7448 14.5162 15.7483 14.4754 15.7611 14.437L16.6726 11.7122H15.1712Z" fill="#F15152"/>
</svg>
