<svg width="32" height="32" viewBox="0 0 32 32" fill="none" xmlns="http://www.w3.org/2000/svg">
<path d="M0.960567 18.4033H8.80216H10.0024V23.4443H9.20224C8.05326 23.4443 7.12182 22.5129 7.12182 21.3639C7.12182 20.7894 6.6561 20.3237 6.08161 20.3237H1.76073C1.05366 20.3237 0.480469 19.7505 0.480469 19.0435V18.8834C0.480469 18.6183 0.695416 18.4033 0.960567 18.4033Z" fill="#2A5275" stroke="#0E1821" stroke-width="0.480098" stroke-linecap="round" stroke-linejoin="round"/>
<path d="M31.0472 18.4033H23.2057H22.0054V23.4443H22.8056C23.9546 23.4443 24.886 22.5129 24.886 21.3639C24.886 20.7894 25.3517 20.3237 25.9262 20.3237H30.2471C30.9542 20.3237 31.5273 19.7505 31.5273 19.0435V18.8834C31.5273 18.6183 31.3124 18.4033 31.0472 18.4033Z" fill="#2A5275" stroke="#0E1821" stroke-width="0.480098" stroke-linecap="round" stroke-linejoin="round"/>
<rect x="13.6033" y="16.7234" width="4.80098" height="13.6028" rx="2.40049" fill="#0E1821" stroke="#0E1821" stroke-width="0.480098"/>
<path d="M10.9631 25.6052C9.73588 23.0583 8.72266 19.2833 8.72266 15.509C8.72266 7.6507 11.9827 1.28027 16.0041 1.28027C20.0256 1.28027 23.2856 7.6507 23.2856 15.509C23.2856 19.3749 22.3256 23.0408 21.0452 25.6052" stroke="#0E1821" stroke-width="0.480098"/>
<path d="M8.64239 15.5231C8.64239 10.7236 9.9198 6.50949 11.843 3.9891V25.125C11.843 25.4344 11.5923 25.6851 11.2829 25.6851C11.0757 25.6851 10.8896 25.5753 10.7977 25.4003C9.46907 22.8702 8.64239 19.3832 8.64239 15.5231Z" fill="#4878A6" stroke="#0E1821" stroke-width="0.480098"/>
<path d="M20.1658 25.125V3.9891C22.0891 6.50949 23.3665 10.7236 23.3665 15.5231C23.3665 19.3832 22.5398 22.8702 21.2112 25.4003C21.1193 25.5753 20.9332 25.6851 20.7259 25.6851C20.4166 25.6851 20.1658 25.4344 20.1658 25.125Z" fill="#4878A6" stroke="#0E1821" stroke-width="0.480098"/>
<path d="M14.814 6.26417C14.8296 6.21129 14.862 6.16487 14.9063 6.13186C14.9506 6.09885 15.0045 6.08102 15.0598 6.08105H17.1081C17.1486 6.08109 17.1886 6.09071 17.2247 6.10913C17.2608 6.12755 17.2919 6.15425 17.3156 6.18702C17.3393 6.21979 17.3549 6.2577 17.361 6.29763C17.3671 6.33756 17.3636 6.37836 17.3508 6.41668L16.4393 9.14149H18.3883C18.4362 9.14146 18.4832 9.15484 18.5239 9.18011C18.5646 9.20537 18.5973 9.24151 18.6184 9.28441C18.6395 9.32731 18.648 9.37524 18.6431 9.42274C18.6382 9.47025 18.62 9.51543 18.5905 9.55312L15.006 14.1438C14.9693 14.191 14.9171 14.2239 14.8585 14.2368C14.7999 14.2496 14.7387 14.2415 14.6854 14.2139C14.6322 14.1864 14.5904 14.1411 14.5673 14.0859C14.5442 14.0308 14.5412 13.9693 14.559 13.9122L15.4812 10.9268H13.7796C13.7398 10.9268 13.7006 10.9176 13.665 10.8998C13.6293 10.8821 13.5984 10.8563 13.5745 10.8246C13.5507 10.7928 13.5346 10.756 13.5275 10.717C13.5204 10.678 13.5226 10.6378 13.5338 10.5998L14.814 6.26417ZM15.2513 6.59113L14.1217 10.4167H15.8279C15.868 10.4167 15.9075 10.426 15.9433 10.444C15.979 10.462 16.0101 10.4881 16.0339 10.5202C16.0577 10.5523 16.0736 10.5895 16.0803 10.6288C16.0871 10.6682 16.0845 10.7085 16.0727 10.7467L15.4592 12.7324L17.8649 9.65157H16.0839C16.0434 9.65154 16.0034 9.64191 15.9674 9.62349C15.9313 9.60507 15.9001 9.57837 15.8764 9.5456C15.8527 9.51283 15.8371 9.47492 15.831 9.43499C15.8249 9.39506 15.8284 9.35426 15.8412 9.31594L16.7527 6.59113H15.2513Z" fill="#F15152"/>
</svg>
