<svg width="32" height="32" viewBox="0 0 32 32" fill="none" xmlns="http://www.w3.org/2000/svg">
<g clip-path="url(#clip0_0_163)">
<rect x="15.2846" y="2.71724" width="1.50071" height="17.4971" fill="#4878A6" stroke="#070C11" stroke-width="0.463768"/>
<rect x="2.65571" y="19.8374" width="4.16678" height="11.8844" rx="2.08339" fill="#070C11" stroke="#070C11" stroke-width="0.463768"/>
<mask id="path-3-inside-1_0_163" fill="white">
<path fill-rule="evenodd" clip-rule="evenodd" d="M7.05418 26.3398H5.65332C4.79954 26.3398 4.10742 25.6477 4.10742 24.7939V19.6917C4.30816 19.6349 4.51999 19.6045 4.73891 19.6045C6.01759 19.6045 7.05418 20.6411 7.05418 21.9198V26.3398Z"/>
</mask>
<path fill-rule="evenodd" clip-rule="evenodd" d="M7.05418 26.3398H5.65332C4.79954 26.3398 4.10742 25.6477 4.10742 24.7939V19.6917C4.30816 19.6349 4.51999 19.6045 4.73891 19.6045C6.01759 19.6045 7.05418 20.6411 7.05418 21.9198V26.3398Z" fill="white"/>
<path d="M7.05418 26.3398V26.8036H7.51795V26.3398H7.05418ZM4.10742 19.6917L3.98119 19.2454L3.64365 19.3409V19.6917H4.10742ZM7.05418 25.8761H5.65332V26.8036H7.05418V25.8761ZM5.65332 25.8761C5.05567 25.8761 4.57119 25.3916 4.57119 24.7939H3.64365C3.64365 25.9038 4.54341 26.8036 5.65332 26.8036V25.8761ZM4.57119 24.7939V19.6917H3.64365V24.7939H4.57119ZM4.23365 20.1379C4.39372 20.0926 4.56308 20.0683 4.73891 20.0683V19.1407C4.47689 19.1407 4.2226 19.1771 3.98119 19.2454L4.23365 20.1379ZM4.73891 20.0683C5.76146 20.0683 6.59041 20.8972 6.59041 21.9198H7.51795C7.51795 20.3849 6.27373 19.1407 4.73891 19.1407V20.0683ZM6.59041 21.9198V26.3398H7.51795V21.9198H6.59041Z" fill="#070C11" mask="url(#path-3-inside-1_0_163)"/>
<rect x="25.3881" y="19.8364" width="4.16678" height="11.8844" rx="2.08339" fill="#070C11" stroke="#070C11" stroke-width="0.463768"/>
<mask id="path-6-inside-2_0_163" fill="white">
<path fill-rule="evenodd" clip-rule="evenodd" d="M25.1548 26.3398H26.5557C27.4094 26.3398 28.1016 25.6477 28.1016 24.7939V19.6916C27.9008 19.6349 27.689 19.6045 27.4701 19.6045C26.1914 19.6045 25.1548 20.6411 25.1548 21.9198V26.3398Z"/>
</mask>
<path fill-rule="evenodd" clip-rule="evenodd" d="M25.1548 26.3398H26.5557C27.4094 26.3398 28.1016 25.6477 28.1016 24.7939V19.6916C27.9008 19.6349 27.689 19.6045 27.4701 19.6045C26.1914 19.6045 25.1548 20.6411 25.1548 21.9198V26.3398Z" fill="white"/>
<path d="M25.1548 26.3398V26.8036H24.6911V26.3398H25.1548ZM28.1016 19.6916L28.2278 19.2454L28.5653 19.3409V19.6916H28.1016ZM25.1548 25.8761H26.5557V26.8036H25.1548V25.8761ZM26.5557 25.8761C27.1533 25.8761 27.6378 25.3916 27.6378 24.7939H28.5653C28.5653 25.9038 27.6656 26.8036 26.5557 26.8036V25.8761ZM27.6378 24.7939V19.6916H28.5653V24.7939H27.6378ZM27.9753 20.1379C27.8153 20.0926 27.6459 20.0683 27.4701 20.0683V19.1407C27.7321 19.1407 27.9864 19.1771 28.2278 19.2454L27.9753 20.1379ZM27.4701 20.0683C26.4476 20.0683 25.6186 20.8972 25.6186 21.9198H24.6911C24.6911 20.3849 25.9353 19.1407 27.4701 19.1407V20.0683ZM25.6186 21.9198V26.3398H24.6911V21.9198H25.6186Z" fill="#070C11" mask="url(#path-6-inside-2_0_163)"/>
<line x1="6.63477" y1="28.2125" x2="25.2973" y2="28.2125" stroke="#070C11" stroke-width="0.463768"/>
<mask id="path-9-inside-3_0_163" fill="white">
<path fill-rule="evenodd" clip-rule="evenodd" d="M16.0361 19.7441C14.8737 19.7441 13.9313 20.6865 13.9313 21.8489V23.5328H6.63477V26.3392H25.5779V23.5328H18.1409V21.8489C18.1409 20.6865 17.1986 19.7441 16.0361 19.7441Z"/>
</mask>
<path fill-rule="evenodd" clip-rule="evenodd" d="M16.0361 19.7441C14.8737 19.7441 13.9313 20.6865 13.9313 21.8489V23.5328H6.63477V26.3392H25.5779V23.5328H18.1409V21.8489C18.1409 20.6865 17.1986 19.7441 16.0361 19.7441Z" fill="#2A5275"/>
<path d="M13.9313 23.5328V23.9966H14.3951V23.5328H13.9313ZM6.63477 23.5328V23.069H6.171V23.5328H6.63477ZM6.63477 26.3392H6.171V26.803H6.63477V26.3392ZM25.5779 26.3392V26.803H26.0417V26.3392H25.5779ZM25.5779 23.5328H26.0417V23.069H25.5779V23.5328ZM18.1409 23.5328H17.6771V23.9966H18.1409V23.5328ZM14.3951 21.8489C14.3951 20.9426 15.1298 20.2079 16.0361 20.2079V19.2804C14.6175 19.2804 13.4676 20.4304 13.4676 21.8489H14.3951ZM14.3951 23.5328V21.8489H13.4676V23.5328H14.3951ZM6.63477 23.9966H13.9313V23.069H6.63477V23.9966ZM7.09853 26.3392V23.5328H6.171V26.3392H7.09853ZM25.5779 25.8754H6.63477V26.803H25.5779V25.8754ZM25.1141 23.5328V26.3392H26.0417V23.5328H25.1141ZM18.1409 23.9966H25.5779V23.069H18.1409V23.9966ZM17.6771 21.8489V23.5328H18.6047V21.8489H17.6771ZM16.0361 20.2079C16.9424 20.2079 17.6771 20.9426 17.6771 21.8489H18.6047C18.6047 20.4304 17.4547 19.2804 16.0361 19.2804V20.2079Z" fill="#070C11" mask="url(#path-9-inside-3_0_163)"/>
<rect x="9.11079" y="0.893017" width="13.8488" height="1.07975" rx="0.539873" fill="#4878A6" stroke="#070C11" stroke-width="0.463768"/>
<rect x="13.4604" y="0.191845" width="5.14901" height="2.48294" rx="1.24147" fill="#F15152" stroke="#070C11" stroke-width="0.463768"/>
<circle cx="15.8961" cy="11.3258" r="1.73259" fill="#F15152" stroke="#070C11" stroke-width="0.463768"/>
<rect x="6.82954" y="26.0483" width="18.5507" height="2.16425" fill="white" stroke="#070C11" stroke-width="0.463768"/>
</g>
<defs>
<clipPath id="clip0_0_163">
<rect width="32" height="32" fill="white"/>
</clipPath>
</defs>
</svg>
