<svg width="32" height="32" viewBox="0 0 32 32" fill="none" xmlns="http://www.w3.org/2000/svg">
<path d="M24.6902 23.2162H16.5293V20.6937H20.6925C21.7531 20.6937 22.6129 19.8339 22.6129 18.7733V9.12012H24.6902V23.2162Z" fill="#4878A6" stroke="#0E1821" stroke-width="0.480098" stroke-linecap="round" stroke-linejoin="round"/>
<path d="M30.8407 20.6792C30.1957 16.9073 26.5364 15.8942 24.6895 15.8711V21.3611H30.2359C30.6067 21.3611 30.9032 21.0447 30.8407 20.6792Z" fill="#4878A6" stroke="#0E1821" stroke-width="0.480098" stroke-linecap="round" stroke-linejoin="round"/>
<path d="M12.9676 23.8842C12.9676 26.0968 11.1739 27.8904 8.96133 27.8904C6.74874 27.8904 4.95508 26.0968 4.95508 23.8842C4.95508 21.6716 6.74874 19.8779 8.96133 19.8779C11.1739 19.8779 12.9676 21.6716 12.9676 23.8842ZM6.88814 23.8842C6.88814 25.0292 7.81634 25.9574 8.96133 25.9574C10.1063 25.9574 11.0345 25.0292 11.0345 23.8842C11.0345 22.7392 10.1063 21.811 8.96133 21.811C7.81634 21.811 6.88814 22.7392 6.88814 23.8842Z" fill="#0E1821"/>
<circle cx="8.96202" cy="23.8839" r="1.98565" fill="white" stroke="#0E1821" stroke-width="0.480098"/>
<circle cx="8.96133" cy="23.8842" r="3.7662" stroke="#0E1821" stroke-width="0.480098"/>
<path d="M30.7742 23.8842C30.7742 26.0968 28.9806 27.8904 26.768 27.8904C24.5554 27.8904 22.7617 26.0968 22.7617 23.8842C22.7617 21.6716 24.5554 19.8779 26.768 19.8779C28.9806 19.8779 30.7742 21.6716 30.7742 23.8842ZM24.6948 23.8842C24.6948 25.0292 25.623 25.9574 26.768 25.9574C27.913 25.9574 28.8412 25.0292 28.8412 23.8842C28.8412 22.7392 27.913 21.811 26.768 21.811C25.623 21.811 24.6948 22.7392 24.6948 23.8842Z" fill="#0E1821"/>
<circle cx="26.7667" cy="23.8839" r="1.98565" fill="white" stroke="#0E1821" stroke-width="0.480098"/>
<circle cx="26.768" cy="23.8842" r="3.7662" stroke="#0E1821" stroke-width="0.480098"/>
<line x1="1.04083" y1="27.6496" x2="31.1269" y2="27.6496" stroke="#0E1821" stroke-width="0.480098" stroke-linecap="round"/>
<circle cx="2.28458" cy="16.9096" r="1.24375" fill="#FBB13C" stroke="#0E1821" stroke-width="0.480098"/>
<path d="M7.34937 13.7371H16.5862V23.1985H2.78844C2.4791 23.1985 2.22833 22.9477 2.22833 22.6383V18.8582C2.22833 16.0299 4.5211 13.7371 7.34937 13.7371Z" fill="#2A5275" stroke="#0E1821" stroke-width="0.480098"/>
<path d="M6.51132 18.0399H13.2956C14.0469 18.0399 14.6559 18.6489 14.6559 19.4001V23.1982H3.71075V20.8404C3.71075 19.2937 4.96461 18.0399 6.51132 18.0399Z" fill="#4878A6" stroke="#0E1821" stroke-width="0.480098"/>
<path d="M12.2425 11.5115H16.2312C16.8362 11.5115 17.3266 12.0019 17.3266 12.6069C17.3266 13.2119 16.8362 13.7023 16.2312 13.7023H12.2425V11.5115ZM11.7624 11.5115V13.7023H4.50925C3.90429 13.7023 3.41388 13.2119 3.41388 12.6069C3.41388 12.0019 3.90429 11.5115 4.50925 11.5115H11.7624Z" fill="#F15152" stroke="#0E1821" stroke-width="0.480098"/>
<path d="M22.6122 4.24103H26.2285C26.803 4.24103 27.2687 4.70674 27.2687 5.28124V8.06239C27.2687 8.63688 26.803 9.1026 26.2285 9.1026H22.6122C21.2698 9.1026 20.1815 8.0143 20.1815 6.67181C20.1815 5.32932 21.2698 4.24103 22.6122 4.24103Z" fill="#4878A6" stroke="#0E1821" stroke-width="0.480098"/>
<rect x="17.3611" y="6.0213" width="6.49375" height="1.7456" rx="0.872799" fill="#2A5275" stroke="#0E1821" stroke-width="0.480098"/>
<path d="M28.8842 4.98214L27.2879 5.54753L27.2821 7.87713L28.8928 8.14109L28.8842 4.98214Z" fill="#4878A6" stroke="#0E1821" stroke-width="0.480098" stroke-linecap="round" stroke-linejoin="round"/>
<circle cx="29.0595" cy="6.66536" r="0.964468" transform="rotate(9.30666 29.0595 6.66536)" fill="#FBB13C" stroke="#0E1821" stroke-width="0.480098"/>
</svg>
