<svg width="32" height="32" viewBox="0 0 32 32" fill="none" xmlns="http://www.w3.org/2000/svg">
<path fill-rule="evenodd" clip-rule="evenodd" d="M7.47531 24.6289L14.6721 17.807V14.4335H15.7966V17.4321H22.9934L22.6936 14.2086C22.6186 12.9341 22.9634 11.9896 25.8422 11.5098L26.0671 12.6343C25.4423 12.6593 24.1629 12.9941 24.043 13.5339C23.923 14.0736 24.7426 21.1055 25.1675 24.554L24.043 25.0038L23.2183 19.0064L16.9211 24.8538L16.4713 23.7293L21.9439 18.5566H15.7966V23.8793V26.1283H6.42578L7.47531 24.6289ZM14.6721 19.4562V23.8793V25.1537H8.44988L14.6721 19.4562Z" fill="#4878A6" stroke="#0E1821" stroke-width="0.480098" stroke-linecap="round" stroke-linejoin="round"/>
<circle cx="7.10102" cy="25.9038" r="5.38245" stroke="#0E1821" stroke-width="0.480098"/>
<path d="M12.4246 25.9037C12.4246 28.8433 10.0415 31.2263 7.10193 31.2263C4.16232 31.2263 1.7793 28.8433 1.7793 25.9037C1.7793 22.9641 4.16232 20.5811 7.10193 20.5811C10.0415 20.5811 12.4246 22.9641 12.4246 25.9037ZM3.20978 25.9037C3.20978 28.0533 4.95236 29.7958 7.10193 29.7958C9.25151 29.7958 10.9941 28.0533 10.9941 25.9037C10.9941 23.7541 9.25151 22.0115 7.10193 22.0115C4.95236 22.0115 3.20978 23.7541 3.20978 25.9037Z" fill="#0E1821"/>
<circle cx="7.10102" cy="25.9038" r="5.38245" stroke="#0E1821" stroke-width="0.480098"/>
<circle cx="7.10019" cy="25.9039" r="3.73319" stroke="#0E1821" stroke-width="0.480098"/>
<circle cx="7.10164" cy="25.9034" r="1.33425" fill="#F15152" stroke="#0E1821" stroke-width="0.480098"/>
<path d="M30.2664 25.9037C30.2664 28.8433 27.8833 31.2263 24.9437 31.2263C22.0041 31.2263 19.6211 28.8433 19.6211 25.9037C19.6211 22.9641 22.0041 20.5811 24.9437 20.5811C27.8833 20.5811 30.2664 22.9641 30.2664 25.9037ZM21.0516 25.9037C21.0516 28.0533 22.7942 29.7958 24.9437 29.7958C27.0933 29.7958 28.8359 28.0533 28.8359 25.9037C28.8359 23.7541 27.0933 22.0115 24.9437 22.0115C22.7942 22.0115 21.0516 23.7541 21.0516 25.9037Z" fill="#0E1821"/>
<circle cx="24.9428" cy="25.9038" r="5.38245" stroke="#0E1821" stroke-width="0.480098"/>
<circle cx="24.9439" cy="25.9039" r="3.73319" stroke="#0E1821" stroke-width="0.480098"/>
<circle cx="24.9434" cy="25.9034" r="1.33425" fill="#F15152" stroke="#0E1821" stroke-width="0.480098"/>
<circle cx="15.2729" cy="25.3793" r="1.85902" fill="#2A5275" stroke="#0E1821" stroke-width="0.480098"/>
<line x1="15.2831" y1="25.3895" x2="15.2831" y2="28.6679" stroke="#0E1821" stroke-width="0.320065" stroke-linecap="round"/>
<line x1="15.9318" y1="28.618" x2="14.6127" y2="28.618" stroke="#0E1821" stroke-width="0.480098" stroke-linecap="round"/>
<circle cx="26.9681" cy="11.7357" r="1.25928" fill="#F15152" stroke="#0E1821" stroke-width="0.480098"/>
<path d="M5.67773 9.78613V14.9631C5.67773 15.5818 6.17928 16.0833 6.79796 16.0833H14.8237" stroke="#0E1821" stroke-width="0.480098"/>
<circle cx="19.7706" cy="6.03725" r="5.15755" fill="white" stroke="#0E1821" stroke-width="0.480098"/>
<path d="M18.5802 2.46062C18.5948 2.41108 18.6252 2.36759 18.6667 2.33666C18.7082 2.30573 18.7587 2.28903 18.8105 2.28906H20.7295C20.7675 2.28909 20.805 2.29811 20.8388 2.31537C20.8726 2.33263 20.9018 2.35764 20.924 2.38834C20.9462 2.41905 20.9608 2.45456 20.9665 2.49197C20.9722 2.52938 20.9689 2.56761 20.9569 2.60351L20.103 5.15637H21.9289C21.9738 5.15634 22.0179 5.16887 22.056 5.19254C22.0941 5.21622 22.1248 5.25007 22.1445 5.29026C22.1643 5.33045 22.1723 5.37536 22.1677 5.41987C22.1631 5.46438 22.146 5.5067 22.1184 5.54202L18.7601 9.84298C18.7257 9.88725 18.6768 9.91808 18.6219 9.9301C18.567 9.94211 18.5096 9.93454 18.4598 9.90871C18.4099 9.88288 18.3707 9.84043 18.3491 9.78876C18.3274 9.7371 18.3247 9.6795 18.3413 9.62602L19.2053 6.82896H17.6111C17.5738 6.82898 17.537 6.82034 17.5037 6.80373C17.4703 6.78711 17.4413 6.76298 17.419 6.73324C17.3966 6.70351 17.3815 6.66899 17.3749 6.63243C17.3683 6.59587 17.3703 6.55828 17.3808 6.52264L18.5802 2.46062ZM18.9899 2.76695L17.9316 6.35108H19.5301C19.5677 6.35107 19.6047 6.35984 19.6382 6.37668C19.6717 6.39352 19.7008 6.41796 19.7231 6.44804C19.7454 6.47811 19.7603 6.51298 19.7666 6.54985C19.773 6.58671 19.7705 6.62453 19.7595 6.66027L19.1847 8.52067L21.4386 5.63425H19.77C19.732 5.63422 19.6946 5.62521 19.6608 5.60795C19.627 5.59069 19.5978 5.56568 19.5756 5.53497C19.5534 5.50427 19.5388 5.46875 19.5331 5.43134C19.5273 5.39393 19.5306 5.35571 19.5426 5.3198L20.3966 2.76695H18.9899Z" fill="#F15152"/>
<path d="M5.01739 8.82696H6.3365V9.45622C6.3365 9.58879 6.22902 9.69627 6.09645 9.69627H5.25744C5.12487 9.69627 5.01739 9.58879 5.01739 9.45622V8.82696Z" fill="#F15152" stroke="#0E1821" stroke-width="0.480098"/>
<path d="M4.26739 6.72735H7.08583V8.55607C7.08583 8.68865 6.97836 8.79612 6.84578 8.79612H4.50744C4.37487 8.79612 4.26739 8.68865 4.26739 8.55607V6.72735Z" fill="#F15152" stroke="#0E1821" stroke-width="0.480098"/>
<line x1="4.83808" y1="6.39765" x2="4.83808" y2="5.52834" stroke="#0E1821" stroke-width="0.480098" stroke-linecap="round"/>
<line x1="6.48651" y1="6.39765" x2="6.48651" y2="5.52834" stroke="#0E1821" stroke-width="0.480098" stroke-linecap="round"/>
<path d="M18.1968 14.3586H12.6493C12.0495 14.2837 11.9173 14.0942 11.7497 13.7589C11.5998 13.4591 11.6747 12.7844 11.8247 12.4845C12.0052 12.1234 12.4244 11.8764 12.7243 11.8098C13.399 11.6599 14.1486 11.8098 14.7484 12.1097C15.2225 12.3467 15.5988 12.9781 16.0228 13.0842C16.3227 13.1592 18.1219 13.1592 18.4217 13.3091C18.7216 13.459 18.7966 14.1587 18.1968 14.3586Z" fill="white" stroke="#0E1821" stroke-width="0.480098" stroke-linecap="round" stroke-linejoin="round"/>
</svg>
