<svg width="32" height="32" viewBox="0 0 32 32" fill="none" xmlns="http://www.w3.org/2000/svg">
<g clip-path="url(#clip0_0_172)">
<path d="M8.70508 22.7773C9.21674 23.0385 10.4793 23.2515 11.436 22.0145" stroke="black" stroke-width="0.48"/>
<rect x="9.93722" y="20.2207" width="11.84" height="3.36" rx="1.04" transform="rotate(-30 9.93722 20.2207)" fill="#F15152" stroke="#0E1821" stroke-width="0.48"/>
<path d="M24.5529 13.6938L23.9255 12.607C23.7487 12.3009 23.8536 11.9095 24.1597 11.7327L26.7924 10.2127C27.0985 10.036 27.49 10.1409 27.6667 10.447L28.2942 11.5338C28.379 11.6808 28.402 11.8555 28.3581 12.0194L27.8017 14.0958C27.7102 14.4372 27.3593 14.6398 27.0179 14.5483L24.9415 13.992C24.7776 13.948 24.6378 13.8408 24.5529 13.6938Z" fill="white" stroke="#0E1821" stroke-width="0.48"/>
<path d="M5.4334 24.7399L4.80242 23.647C4.62569 23.3409 4.73057 22.9495 5.03668 22.7728L7.53083 21.3328C7.83694 21.156 8.22836 21.2609 8.40509 21.567L9.03606 22.6599C9.11884 22.8033 9.14284 22.9732 9.10301 23.1339L8.60363 25.1489C8.51633 25.5012 8.15387 25.7104 7.80514 25.6099L5.81038 25.0349C5.6513 24.989 5.51618 24.8833 5.4334 24.7399Z" fill="white" stroke="#0E1821" stroke-width="0.48"/>
<path d="M30.1332 7.36047L1.03472 24.1605C0.728618 24.3372 0.623738 24.7286 0.800469 25.0347C0.9772 25.3408 1.36862 25.4457 1.67472 25.269L2.46432 24.8131C3.14388 24.4208 3.8794 24.1346 4.64543 23.9645L4.78962 23.9325C5.6512 23.7412 6.47849 23.4193 7.24282 22.978L26.0051 12.1456C26.7694 11.7043 27.4618 11.1488 28.0583 10.4983L28.1581 10.3894C28.6884 9.81109 29.304 9.3172 29.9836 8.92486L30.7732 8.46898C31.0793 8.29225 31.1842 7.90083 31.0074 7.59472C30.8307 7.28862 30.4393 7.18374 30.1332 7.36047Z" fill="#4878A6" stroke="#0E1821" stroke-width="0.48"/>
<circle cx="28.3795" cy="16.0081" r="1.36157" transform="rotate(-30 28.3795 16.0081)" fill="white"/>
<mask id="path-7-inside-1_0_172" fill="white">
<path d="M31.2439 14.3548C32.157 15.9364 31.6152 17.9587 30.0336 18.8718C28.4521 19.7849 26.4297 19.2431 25.5166 17.6615C24.6035 16.08 25.1454 14.0576 26.7269 13.1445C28.3085 12.2314 30.3308 12.7733 31.2439 14.3548ZM27.4485 16.5461C27.7456 17.0608 28.4036 17.2371 28.9182 16.94C29.4329 16.6429 29.6092 15.9848 29.3121 15.4702C29.015 14.9556 28.3569 14.7793 27.8423 15.0764C27.3277 15.3735 27.1514 16.0315 27.4485 16.5461Z"/>
</mask>
<path d="M31.2439 14.3548C32.157 15.9364 31.6152 17.9587 30.0336 18.8718C28.4521 19.7849 26.4297 19.2431 25.5166 17.6615C24.6035 16.08 25.1454 14.0576 26.7269 13.1445C28.3085 12.2314 30.3308 12.7733 31.2439 14.3548ZM27.4485 16.5461C27.7456 17.0608 28.4036 17.2371 28.9182 16.94C29.4329 16.6429 29.6092 15.9848 29.3121 15.4702C29.015 14.9556 28.3569 14.7793 27.8423 15.0764C27.3277 15.3735 27.1514 16.0315 27.4485 16.5461Z" fill="#0E1821" stroke="#0E1821" stroke-width="0.96" mask="url(#path-7-inside-1_0_172)"/>
<circle cx="9.17634" cy="27.095" r="1.36157" transform="rotate(-30 9.17634 27.095)" fill="white"/>
<mask id="path-9-inside-2_0_172" fill="white">
<path d="M12.0408 25.4418C12.9539 27.0233 12.412 29.0456 10.8305 29.9587C9.24893 30.8719 7.2266 30.33 6.31349 28.7484C5.40038 27.1669 5.94226 25.1445 7.52381 24.2314C9.10537 23.3183 11.1277 23.8602 12.0408 25.4418ZM8.24535 27.6331C8.54247 28.1477 9.2005 28.324 9.71512 28.0269C10.2297 27.7298 10.4061 27.0717 10.1089 26.5571C9.81183 26.0425 9.15379 25.8662 8.63918 26.1633C8.12456 26.4604 7.94824 27.1184 8.24535 27.6331Z"/>
</mask>
<path d="M12.0408 25.4418C12.9539 27.0233 12.412 29.0456 10.8305 29.9587C9.24893 30.8719 7.2266 30.33 6.31349 28.7484C5.40038 27.1669 5.94226 25.1445 7.52381 24.2314C9.10537 23.3183 11.1277 23.8602 12.0408 25.4418ZM8.24535 27.6331C8.54247 28.1477 9.2005 28.324 9.71512 28.0269C10.2297 27.7298 10.4061 27.0717 10.1089 26.5571C9.81183 26.0425 9.15379 25.8662 8.63918 26.1633C8.12456 26.4604 7.94824 27.1184 8.24535 27.6331Z" fill="#0E1821" stroke="#0E1821" stroke-width="0.96" mask="url(#path-9-inside-2_0_172)"/>
<circle cx="9.11938" cy="8.31957" r="5.52" fill="white" stroke="#0E1821" stroke-width="0.48"/>
<path d="M7.85085 4.50339C7.86645 4.45052 7.89883 4.40411 7.94313 4.37111C7.98743 4.3381 8.04128 4.32028 8.0966 4.32031H10.1445C10.185 4.32034 10.225 4.32996 10.261 4.34838C10.2971 4.3668 10.3283 4.39349 10.352 4.42626C10.3757 4.45902 10.3912 4.49693 10.3973 4.53685C10.4034 4.57677 10.4 4.61756 10.3871 4.65587L9.47584 7.38013H11.4244C11.4723 7.3801 11.5193 7.39347 11.56 7.41873C11.6007 7.444 11.6334 7.48013 11.6545 7.52302C11.6756 7.5659 11.6841 7.61383 11.6792 7.66132C11.6743 7.70882 11.656 7.75399 11.6266 7.79168L8.04284 12.3814C8.00613 12.4286 7.95393 12.4616 7.89534 12.4744C7.83676 12.4872 7.77552 12.4791 7.72231 12.4515C7.66909 12.424 7.62729 12.3787 7.60418 12.3235C7.58108 12.2684 7.57815 12.2069 7.59589 12.1499L8.51795 9.16502H6.81668C6.77688 9.16505 6.73763 9.15583 6.70203 9.1381C6.66644 9.12036 6.63548 9.09461 6.61163 9.06288C6.58777 9.03115 6.57168 8.99431 6.56461 8.9553C6.55755 8.91628 6.55971 8.87617 6.57094 8.83813L7.85085 4.50339ZM8.28807 4.83028L7.15867 8.65505H8.86455C8.90461 8.65505 8.94411 8.6644 8.97988 8.68238C9.01565 8.70035 9.04668 8.72643 9.07049 8.75852C9.09429 8.79062 9.1102 8.82783 9.11694 8.86717C9.12367 8.9065 9.12105 8.94686 9.10927 8.98501L8.49593 10.9703L10.9012 7.8901H9.12053C9.07999 7.89007 9.04004 7.88045 9.00396 7.86203C8.96789 7.84361 8.93672 7.81692 8.91302 7.78415C8.88933 7.75139 8.87378 7.71349 8.86767 7.67357C8.86156 7.63365 8.86505 7.59285 8.87786 7.55454L9.78916 4.83028H8.28807Z" fill="#F15152"/>
</g>
<defs>
<clipPath id="clip0_0_172">
<rect width="32" height="32" fill="white"/>
</clipPath>
</defs>
</svg>
