<svg width="32" height="32" viewBox="0 0 32 32" fill="none" xmlns="http://www.w3.org/2000/svg">
<path d="M3.60138 20.0041H5.04167V22.0845H4.64159C4.06709 22.0845 3.60138 21.6188 3.60138 21.0443V20.0041ZM5.04167 19.524H3.60138V15.2031C3.60138 8.35339 9.15417 2.8006 16.0039 2.8006C22.8536 2.8006 28.4064 8.35339 28.4064 15.2031V19.604H26.9661V16.0486C26.9661 9.55167 22.5231 4.24089 16.0039 4.24089C9.48467 4.24089 5.04167 9.55167 5.04167 16.0486V19.524ZM26.9661 20.0841H28.4064V21.0443C28.4064 21.6188 27.9407 22.0845 27.3662 22.0845H26.9661V20.0841Z" fill="#4878A6" stroke="#0E1821" stroke-width="0.480098"/>
<path d="M6.481 17.6805H8.08063V25.8405H6.481C5.59716 25.8405 4.88067 25.124 4.88067 24.2402V19.2808C4.88067 18.397 5.59716 17.6805 6.481 17.6805Z" fill="#4878A6" stroke="#0E1821" stroke-width="0.480098"/>
<path d="M25.519 17.6805H23.9194V25.8405H25.519C26.4028 25.8405 27.1193 25.124 27.1193 24.2402V19.2808C27.1193 18.397 26.4028 17.6805 25.519 17.6805Z" fill="#4878A6" stroke="#0E1821" stroke-width="0.480098"/>
<rect x="7.12091" y="16.0799" width="4.31997" height="11.3601" rx="2.15998" fill="#2A5275" stroke="#0E1821" stroke-width="0.480098"/>
<rect x="-0.240049" y="0.240049" width="4.31997" height="11.3601" rx="2.15998" transform="matrix(-1 0 0 1 24.641 15.8398)" fill="#2A5275" stroke="#0E1821" stroke-width="0.480098"/>
</svg>
