<svg width="21" height="18" viewBox="0 0 21 18" fill="none" xmlns="http://www.w3.org/2000/svg">
<path d="M19.1603 2.00017C18.1002 0.937373 16.6951 0.288706 15.1986 0.171335C13.7021 0.0539653 12.213 0.475631 11.0003 1.36017C9.72793 0.413803 8.14427 -0.0153233 6.5682 0.159203C4.99212 0.333729 3.54072 1.09894 2.50625 2.30075C1.47178 3.50256 0.931098 5.05169 0.993077 6.63618C1.05506 8.22067 1.71509 9.72283 2.84028 10.8402L9.05028 17.0602C9.57029 17.5719 10.2707 17.8588 11.0003 17.8588C11.7299 17.8588 12.4303 17.5719 12.9503 17.0602L19.1603 10.8402C20.3279 9.66543 20.9832 8.07644 20.9832 6.42017C20.9832 4.76389 20.3279 3.1749 19.1603 2.00017Z" fill="#F15152"/>
</svg>
