<svg width="24" height="24" viewBox="0 0 24 24" fill="none" xmlns="http://www.w3.org/2000/svg">
<path d="M12.5901 1.41027L12.5897 1.40985C12.4339 1.25495 12.2231 1.16801 12.0034 1.16801C11.7836 1.16801 11.5729 1.25495 11.417 1.40985L11.4167 1.4102L1.41668 11.4102L1.41633 11.4098L1.40803 11.4195C1.27178 11.5786 1.20058 11.7833 1.20867 11.9926C1.21675 12.2019 1.30352 12.4005 1.45164 12.5486C1.59975 12.6967 1.7983 12.7835 2.00761 12.7916C2.21692 12.7996 2.42158 12.7284 2.58068 12.5922L2.581 12.5926L2.59002 12.5835L12 3.17359L21.41 12.5902L21.4096 12.5905L21.4194 12.5989C21.5785 12.7351 21.7831 12.8063 21.9924 12.7982C22.2017 12.7901 22.4003 12.7034 22.5484 12.5553C22.6965 12.4071 22.7833 12.2086 22.7914 11.9993C22.7995 11.79 22.7283 11.5853 22.592 11.4262L22.5924 11.4259L22.5834 11.4169L12.5901 1.41027Z" fill="#BFCBD6" stroke="#BFCBD6" stroke-width="0.33"/>
<path d="M18.5017 21.1682H16.3333C15.8722 21.1682 15.4983 20.7943 15.4983 20.3332V15.6665C15.4983 15.0231 14.9767 14.5015 14.3333 14.5015H9.66667C9.02325 14.5015 8.50167 15.0231 8.50167 15.6665V20.3332C8.50167 20.7943 8.12782 21.1682 7.66667 21.1682H5.49833V13.6093C5.49833 12.8684 4.60251 12.4973 4.07859 13.0212C3.92262 13.1772 3.835 13.3887 3.835 13.6093V21.3332C3.835 21.7306 3.99286 22.1117 4.27385 22.3927C4.55484 22.6737 4.93595 22.8315 5.33333 22.8315H9C9.64341 22.8315 10.165 22.3099 10.165 21.6665V16.9998C10.165 16.5387 10.5388 16.1648 11 16.1648H13C13.4612 16.1648 13.835 16.5387 13.835 16.9998V21.6665C13.835 22.3099 14.3566 22.8315 15 22.8315H18.6667C19.064 22.8315 19.4452 22.6737 19.7261 22.3927C20.0071 22.1117 20.165 21.7306 20.165 21.3332V13.4493C20.165 13.2287 20.0774 13.0172 19.9214 12.8612C19.3975 12.3373 18.5017 12.7084 18.5017 13.4493V21.1682Z" fill="#BFCBD6" stroke="#BFCBD6" stroke-width="0.33"/>
</svg>
