<svg width="48" height="48" viewBox="0 0 48 48" fill="none" xmlns="http://www.w3.org/2000/svg">
<path d="M33.8055 29.1153C33.8055 29.0322 33.7225 29.0322 33.7225 28.9492C33.3904 28.285 32.6432 27.4548 31.6469 26.5416C31.1488 26.1264 30.8997 25.7943 30.7337 25.6283C30.4846 25.2962 30.4846 25.0471 30.5676 24.715C30.6507 24.466 30.9827 24.0509 31.5639 23.3036C31.896 22.8885 32.062 22.6395 32.3111 22.3904C33.5564 20.7299 34.1376 19.6506 33.9716 19.1525L33.8886 19.0695C33.8055 18.9865 33.7225 18.9034 33.5564 18.9034C33.3904 18.8204 33.1413 18.8204 32.8923 18.9034H29.7374C29.6544 18.9034 29.6544 18.9034 29.4883 18.9034C29.4053 18.9034 29.3223 18.9034 29.3223 18.9034H29.2393H29.1562L29.0732 18.9865C28.9902 19.0695 28.9902 19.0695 28.9902 19.1525C28.6581 20.0658 28.243 20.813 27.8279 21.6432C27.5788 22.0583 27.3297 22.4734 27.0807 22.8055C26.8316 23.1376 26.6655 23.3867 26.4995 23.5527C26.3335 23.7188 26.1674 23.8018 26.0844 23.9678C26.0014 24.0509 25.8353 24.1339 25.8353 24.0509C25.7523 24.0509 25.6693 24.0509 25.6693 23.9678C25.5862 23.8848 25.5032 23.8018 25.4202 23.7188C25.3372 23.6357 25.3372 23.4697 25.2542 23.3036C25.2542 23.1376 25.2542 22.9716 25.2542 22.8885C25.2542 22.8055 25.2542 22.5564 25.2542 22.3904C25.2542 22.1413 25.2542 21.9753 25.2542 21.8923C25.2542 21.6432 25.2542 21.3111 25.2542 20.979C25.2542 20.6469 25.2542 20.3978 25.2542 20.2318C25.2542 20.0658 25.2542 19.8167 25.2542 19.6506C25.2542 19.4016 25.2542 19.2355 25.2542 19.1525C25.2542 19.0695 25.1712 18.9034 25.1712 18.8204C25.0881 18.7374 25.0051 18.6544 24.9221 18.5713C24.839 18.4883 24.673 18.4883 24.59 18.4053C24.1749 18.3223 23.6767 18.2393 23.0956 18.2393C21.7672 18.2393 20.854 18.3223 20.5219 18.4883C20.3558 18.5714 20.1898 18.6544 20.1067 18.8204C19.9407 18.9865 19.9407 19.0695 20.0237 19.0695C20.4388 19.1525 20.7709 19.3185 20.937 19.5676L21.02 19.7337C21.103 19.8167 21.103 19.9827 21.186 20.2318C21.2691 20.4809 21.2691 20.7299 21.2691 21.062C21.2691 21.5602 21.2691 22.0583 21.2691 22.3904C21.2691 22.8055 21.186 23.0546 21.186 23.3036C21.186 23.5527 21.103 23.7188 21.02 23.8018C20.937 23.9678 20.937 24.0509 20.8539 24.0509C20.8539 24.0509 20.8539 24.1339 20.7709 24.1339C20.6879 24.1339 20.6049 24.2169 20.4388 24.2169C20.3558 24.2169 20.1898 24.1339 20.1067 24.0509C19.9407 23.9678 19.7747 23.8018 19.6916 23.6357C19.5256 23.4697 19.3595 23.2206 19.1935 22.8885C19.0274 22.5564 18.7784 22.2244 18.6123 21.7262L18.4463 21.3941C18.3633 21.2281 18.1972 20.896 18.0312 20.4809C17.8651 20.0658 17.6991 19.7337 17.533 19.3186C17.45 19.1525 17.367 19.0695 17.284 18.9865H17.2009C17.2009 18.9865 17.1179 18.9034 17.0349 18.9034C16.9519 18.9034 16.8689 18.8204 16.7858 18.8204H13.797C13.4649 18.8204 13.2989 18.9034 13.2158 18.9865L13.1328 19.0695C13.1328 19.0695 13.1328 19.1525 13.1328 19.2355C13.1328 19.3186 13.1328 19.4016 13.2158 19.5676C13.631 20.5639 14.1291 21.5602 14.6272 22.5564C15.1254 23.4697 15.6235 24.2999 15.9556 24.8811C16.3707 25.4623 16.7028 26.0434 17.1179 26.5416C17.533 27.0397 17.7821 27.3718 17.8651 27.5378C18.0312 27.7039 18.1142 27.7869 18.1972 27.8699L18.4463 28.119C18.6123 28.285 18.8614 28.5341 19.1935 28.7832C19.5256 29.0322 19.9407 29.2813 20.3558 29.5304C20.7709 29.7794 21.2691 29.9455 21.7672 30.1115C22.3484 30.2776 22.8465 30.3606 23.3446 30.2776H24.59C24.839 30.2776 25.0051 30.1946 25.1712 30.0285L25.2542 29.9455C25.2542 29.8625 25.3372 29.8625 25.3372 29.7794C25.3372 29.6964 25.3372 29.6134 25.3372 29.4474C25.3372 29.1153 25.3372 28.8662 25.4202 28.6171C25.5032 28.3681 25.5032 28.202 25.5863 28.036C25.6693 27.8699 25.7523 27.7869 25.8353 27.7039C25.9183 27.6208 26.0014 27.5378 26.0014 27.5378H26.0844C26.2504 27.4548 26.4995 27.5378 26.6656 27.7039C26.9146 27.8699 27.1637 28.119 27.3297 28.3681C27.4958 28.6171 27.7449 28.8662 28.077 29.1983C28.409 29.5304 28.6581 29.7794 28.8242 29.8625L29.0732 30.0285C29.2393 30.1115 29.4053 30.1946 29.6544 30.2776C29.9035 30.3606 30.0695 30.3606 30.2355 30.3606L33.0583 30.2776C33.3074 30.2776 33.5565 30.1946 33.7225 30.1115C33.8885 30.0285 33.9716 29.9455 33.9716 29.7794C33.9716 29.6964 33.9716 29.5304 33.9716 29.4474C33.8055 29.2813 33.8055 29.1983 33.8055 29.1153Z" fill="#2A5275"/>
</svg>
